<mxfile host="app.diagrams.net" modified="2022-02-18T09:01:56.989Z" agent="5.0 (Windows NT 10.0; Win64; x64) AppleWebKit/537.36 (KHTML, like Gecko) Chrome/98.0.4758.102 Safari/537.36" etag="6Pg4y03F_hUeLG1NTiEX" version="16.6.1" type="github">
  <diagram id="C5RBs43oDa-KdzZeNtuy" name="Page-1">
    <mxGraphModel dx="1153" dy="608" grid="1" gridSize="10" guides="1" tooltips="1" connect="1" arrows="1" fold="1" page="1" pageScale="1" pageWidth="827" pageHeight="1169" math="0" shadow="0">
      <root>
        <mxCell id="WIyWlLk6GJQsqaUBKTNV-0" />
        <mxCell id="WIyWlLk6GJQsqaUBKTNV-1" parent="WIyWlLk6GJQsqaUBKTNV-0" />
        <mxCell id="dznjI4Op5mDQ9Cx56ktz-1" style="edgeStyle=orthogonalEdgeStyle;rounded=0;orthogonalLoop=1;jettySize=auto;html=1;fontSize=18;" edge="1" parent="WIyWlLk6GJQsqaUBKTNV-1" source="dznjI4Op5mDQ9Cx56ktz-0">
          <mxGeometry relative="1" as="geometry">
            <mxPoint x="380" y="130" as="targetPoint" />
          </mxGeometry>
        </mxCell>
        <mxCell id="dznjI4Op5mDQ9Cx56ktz-0" value="&lt;font style=&quot;font-size: 18px&quot;&gt;START&lt;/font&gt;" style="ellipse;whiteSpace=wrap;html=1;" vertex="1" parent="WIyWlLk6GJQsqaUBKTNV-1">
          <mxGeometry x="320" y="30" width="120" height="60" as="geometry" />
        </mxCell>
        <mxCell id="dznjI4Op5mDQ9Cx56ktz-4" style="edgeStyle=orthogonalEdgeStyle;rounded=0;orthogonalLoop=1;jettySize=auto;html=1;fontSize=18;" edge="1" parent="WIyWlLk6GJQsqaUBKTNV-1" source="dznjI4Op5mDQ9Cx56ktz-2">
          <mxGeometry relative="1" as="geometry">
            <mxPoint x="385" y="260" as="targetPoint" />
          </mxGeometry>
        </mxCell>
        <mxCell id="dznjI4Op5mDQ9Cx56ktz-2" value="&lt;div&gt;from tkinter import *&lt;/div&gt;&lt;div&gt;import pickle&lt;/div&gt;&lt;div&gt;import mysql.connector as sql&lt;/div&gt;&lt;div&gt;&lt;br&gt;&lt;/div&gt;" style="rounded=1;whiteSpace=wrap;html=1;fontSize=18;" vertex="1" parent="WIyWlLk6GJQsqaUBKTNV-1">
          <mxGeometry x="230" y="130" width="310" height="90" as="geometry" />
        </mxCell>
        <mxCell id="dznjI4Op5mDQ9Cx56ktz-3" style="edgeStyle=orthogonalEdgeStyle;rounded=0;orthogonalLoop=1;jettySize=auto;html=1;exitX=0.5;exitY=1;exitDx=0;exitDy=0;fontSize=18;" edge="1" parent="WIyWlLk6GJQsqaUBKTNV-1" source="dznjI4Op5mDQ9Cx56ktz-2" target="dznjI4Op5mDQ9Cx56ktz-2">
          <mxGeometry relative="1" as="geometry" />
        </mxCell>
        <mxCell id="dznjI4Op5mDQ9Cx56ktz-7" style="edgeStyle=orthogonalEdgeStyle;rounded=0;orthogonalLoop=1;jettySize=auto;html=1;fontSize=18;" edge="1" parent="WIyWlLk6GJQsqaUBKTNV-1" source="dznjI4Op5mDQ9Cx56ktz-5">
          <mxGeometry relative="1" as="geometry">
            <mxPoint x="385" y="380" as="targetPoint" />
          </mxGeometry>
        </mxCell>
        <mxCell id="dznjI4Op5mDQ9Cx56ktz-5" value="&lt;div&gt;db=sql.connect(host=&#39;localhost&#39;, user=&#39;ash&#39;, password=&#39;autobotsrollout&#39;)&lt;/div&gt;&lt;div&gt;cursor=db.cursor()&lt;/div&gt;" style="rounded=1;whiteSpace=wrap;html=1;fontSize=18;" vertex="1" parent="WIyWlLk6GJQsqaUBKTNV-1">
          <mxGeometry x="180" y="260" width="410" height="80" as="geometry" />
        </mxCell>
        <mxCell id="dznjI4Op5mDQ9Cx56ktz-13" style="edgeStyle=orthogonalEdgeStyle;rounded=0;orthogonalLoop=1;jettySize=auto;html=1;fontSize=18;" edge="1" parent="WIyWlLk6GJQsqaUBKTNV-1" source="dznjI4Op5mDQ9Cx56ktz-8">
          <mxGeometry relative="1" as="geometry">
            <mxPoint x="385" y="490" as="targetPoint" />
          </mxGeometry>
        </mxCell>
        <mxCell id="dznjI4Op5mDQ9Cx56ktz-8" value="&lt;div&gt;def createdb():&lt;/div&gt;&lt;div&gt;&amp;nbsp; &amp;nbsp; &amp;nbsp; &amp;nbsp; &amp;nbsp; &amp;nbsp; &amp;nbsp; &amp;nbsp; &amp;nbsp; &amp;nbsp; &amp;nbsp; &amp;nbsp; &amp;nbsp; &amp;nbsp; &amp;nbsp; source=open(&#39;dbcreate.sql&#39;)&lt;/div&gt;&lt;div&gt;&amp;nbsp; &amp;nbsp; &amp;nbsp; &amp;nbsp; &amp;nbsp; &amp;nbsp; &amp;nbsp; &amp;nbsp; &amp;nbsp; &amp;nbsp; &amp;nbsp; &amp;nbsp; lines=source.readlines()&lt;/div&gt;" style="rounded=1;whiteSpace=wrap;html=1;fontSize=18;" vertex="1" parent="WIyWlLk6GJQsqaUBKTNV-1">
          <mxGeometry x="195" y="380" width="380" height="70" as="geometry" />
        </mxCell>
        <mxCell id="dznjI4Op5mDQ9Cx56ktz-16" style="edgeStyle=orthogonalEdgeStyle;rounded=0;orthogonalLoop=1;jettySize=auto;html=1;entryX=0.5;entryY=0;entryDx=0;entryDy=0;fontSize=18;" edge="1" parent="WIyWlLk6GJQsqaUBKTNV-1" source="dznjI4Op5mDQ9Cx56ktz-10" target="dznjI4Op5mDQ9Cx56ktz-12">
          <mxGeometry relative="1" as="geometry" />
        </mxCell>
        <mxCell id="dznjI4Op5mDQ9Cx56ktz-10" value="&lt;div&gt;for line in lines:&lt;/div&gt;&lt;div&gt;&amp;nbsp; &amp;nbsp; &amp;nbsp; &amp;nbsp; &amp;nbsp; &amp;nbsp; &amp;nbsp; cursor.execute(line)&lt;/div&gt;" style="rounded=1;whiteSpace=wrap;html=1;fontSize=18;" vertex="1" parent="WIyWlLk6GJQsqaUBKTNV-1">
          <mxGeometry x="260" y="490" width="250" height="60" as="geometry" />
        </mxCell>
        <mxCell id="dznjI4Op5mDQ9Cx56ktz-12" value="STOP" style="ellipse;whiteSpace=wrap;html=1;fontSize=18;" vertex="1" parent="WIyWlLk6GJQsqaUBKTNV-1">
          <mxGeometry x="325" y="580" width="120" height="65" as="geometry" />
        </mxCell>
      </root>
    </mxGraphModel>
  </diagram>
</mxfile>
